<svg width="500" height="70" viewBox="0 0 500 70"
    xmlns="http://www.w3.org/2000/svg">
    <path id="Shape" fill="currentColor" fillRule="evenodd" stroke="none" d="M 307.710907 68.092773 C 305.543091 70.499931 305.522675 70.512375 305.731964 69.300003 C 305.848236 68.626251 306.566895 65.239998 307.328888 61.775002 C 308.090942 58.309998 309.3414 52.403748 310.107697 48.650002 C 310.874023 44.896248 311.805023 40.092499 312.176575 37.974998 C 312.548187 35.857498 312.72757 33.999214 312.575287 33.845474 C 312.422974 33.69173 311.521179 34.186981 310.57132 34.946033 C 309.621429 35.705078 306.782959 38.158051 304.26358 40.397068 C 301.744171 42.636093 298.414398 45.43557 296.863983 46.61813 C 295.313599 47.800686 292.618042 49.921314 290.87384 51.330627 C 289.129669 52.739952 286.458679 54.819782 284.938293 55.952484 C 283.417938 57.085182 279.771027 59.834595 276.834015 62.062279 C 273.897003 64.28997 271.198242 66.22361 270.8367 66.359261 C 270.272644 66.570915 270.217163 66.487709 270.445709 65.772537 C 270.592163 65.314194 272.223358 61.707241 274.070557 57.757092 C 275.917786 53.806938 278.093201 49 278.904846 47.075001 C 279.716431 45.150002 281.135468 41.842499 282.058228 39.724998 C 282.980988 37.607498 284.737823 33.827499 285.962341 31.325001 C 287.186859 28.822502 289.086914 24.64875 290.184662 22.049999 C 291.28241 19.451248 292.716675 16.30125 293.371857 15.049999 C 294.027069 13.798752 295.131439 11.55735 295.825989 10.069111 C 296.635742 8.334114 297.479187 7.087143 298.176727 6.593773 C 299.264648 5.824318 299.264648 5.824318 299.02475 7.314457 C 298.814331 8.621529 298.861664 8.789959 299.410034 8.685432 C 299.753906 8.619888 300.457245 7.780727 300.972992 6.820633 C 301.48877 5.860535 302.198242 4.602501 302.549622 4.025002 C 303.188507 2.974998 303.188507 2.974998 303.30246 4.039795 C 303.365112 4.625427 302.953644 6.357925 302.388031 7.889793 C 301.822418 9.421658 300.456085 12.80125 299.351746 15.400002 C 298.247375 17.998753 296.704041 22.014999 295.922058 24.325001 C 295.140076 26.635002 294.415497 29.430622 294.311859 30.537498 C 294.164429 32.111732 294.22998 32.549686 294.612793 32.548557 C 294.881958 32.547764 296.925659 31.037094 299.154327 29.191521 C 301.383026 27.34594 304.274567 25.203697 305.579987 24.430977 C 306.885406 23.65826 309.580994 21.676693 311.570129 20.027493 C 313.559265 18.378288 317.026917 15.441807 319.27597 13.501968 C 321.525085 11.562138 324.503357 8.969803 325.894348 7.74123 C 328.423523 5.507462 328.423523 5.507462 328.186401 7.041229 C 328.056 7.884804 327.582581 10.567287 327.134338 13.002304 C 326.686096 15.437325 325.923187 20.241077 325.438934 23.677307 C 324.954712 27.113541 324.447632 30.777832 324.312134 31.820183 C 324.110565 33.37075 324.155487 33.680027 324.559296 33.521004 C 324.83075 33.414101 326.559204 31.852516 328.400269 30.050819 C 330.241364 28.249115 333.542358 25.121246 335.735779 23.099998 C 337.92926 21.078751 339.950928 19.374077 340.228394 19.31184 C 340.593323 19.229988 340.73291 19.54475 340.73291 20.449337 C 340.73291 21.137199 340.900757 21.700001 341.105927 21.700001 C 341.311096 21.700001 345.293457 17.880623 349.955658 13.212502 C 354.617828 8.544376 358.37439 4.898552 358.303558 5.110672 C 358.232697 5.3228 357.244659 6.696243 356.10788 8.162777 C 354.438538 10.316296 354.083557 10.997818 354.262451 11.705746 C 354.430115 12.369389 354.200439 12.951187 353.316833 14.10107 C 352.674896 14.936401 351.624298 16.544487 350.982208 17.674599 C 350.340118 18.804714 348.779755 21.15712 347.51474 22.902176 C 346.249725 24.647228 344.059479 27.571247 342.647491 29.400002 C 341.235504 31.228752 338.671051 34.299999 336.948669 36.224998 C 335.226288 38.150002 331.225159 42.481251 328.057251 45.849998 C 324.889374 49.21875 319.508331 55.054249 316.099396 58.817772 C 312.69046 62.581299 308.915649 66.755051 307.710907 68.092773 Z M 147.927948 69.300003 C 147.769135 69.300003 147.639175 68.744003 147.639175 68.064453 C 147.639175 67.384903 148.033371 65.898628 148.515152 64.76162 C 148.996948 63.624615 149.790939 61.323956 150.279572 59.649048 C 150.768219 57.97414 151.264481 55.788513 151.382385 54.792091 C 151.584976 53.079826 151.536697 52.930237 150.502396 52.06575 C 149.875778 51.542034 148.540543 50.96349 147.378433 50.712189 C 146.202866 50.457977 142.680008 50.263134 139.006348 50.249146 C 132.663849 50.224998 132.663849 50.224998 130.725861 51.421471 C 129.659973 52.079529 128.431107 52.688515 127.995064 52.774773 C 127.417114 52.889099 127.202255 52.767208 127.202255 52.324982 C 127.202255 51.897999 127.000862 51.770672 126.522179 51.895012 C 126.148132 51.992172 124.976646 52.758667 123.918877 53.598331 C 122.861099 54.438 121.166542 55.723431 120.153175 56.454845 C 119.139816 57.186264 118.217514 57.692123 118.103622 57.578987 C 117.989708 57.465851 118.081047 56.887707 118.306572 56.294228 C 118.532089 55.700745 119.515945 54.066643 120.492912 52.662888 C 121.469879 51.259129 122.269203 49.872932 122.269203 49.582443 C 122.269203 49.28038 121.703568 48.873901 120.947853 48.632896 C 120.221107 48.401127 119.344078 47.966316 118.998901 47.666645 C 118.493843 47.22818 118.459442 47.042973 118.822716 46.718132 C 119.070999 46.496124 119.932816 46.129425 120.737854 45.903252 C 121.5429 45.677078 123.100273 45.083344 124.198692 44.583847 C 125.297104 44.084343 126.755463 43.623993 127.439491 43.560848 C 128.12352 43.4977 129.340988 43.015686 130.144974 42.489708 C 130.948959 41.96373 133.94313 39.658424 136.798676 37.366806 C 139.654236 35.075184 143.459732 31.899155 145.255341 30.308968 C 147.050949 28.718773 151.215637 24.925243 154.510223 21.878895 C 157.804794 18.832542 163.195908 13.923004 166.490494 10.9688 C 170.845764 7.063477 172.50647 5.765022 172.575378 6.211262 C 172.627487 6.548817 172.017395 8.951248 171.219635 11.549999 C 170.421875 14.14875 169.08194 18.637501 168.242035 21.525002 C 167.4021 24.412498 165.77478 29.452499 164.625748 32.724998 C 163.476715 35.997501 161.319641 41.982498 159.832245 46.025002 C 158.344849 50.067501 156.155609 55.950203 154.967255 59.097672 C 153.778931 62.24514 152.468338 65.316391 152.054871 65.922668 C 151.496689 66.741112 151.035461 67.025002 150.263947 67.025002 C 149.429886 67.025002 149.125336 67.249489 148.720764 68.162498 C 148.443542 68.788124 148.086777 69.300003 147.927948 69.300003 Z M 92.428474 43.074726 C 85.925896 50.284809 82.55925 54.067528 80.751831 56.132427 C 78.942116 58.199959 76.927048 60.141899 76.266945 60.454571 C 75.156021 60.980782 75.020531 60.979435 74.416183 60.436172 C 74.057541 60.113777 73.508461 59.849998 73.196007 59.849998 C 72.88356 59.849998 72.529922 60.0075 72.410149 60.200001 C 72.290375 60.392502 71.96389 60.549999 71.684631 60.549999 C 71.4002 60.549999 71.176888 60.219494 71.176888 59.798546 C 71.176888 59.385246 71.70845 58.400871 72.358139 57.611046 C 73.007828 56.82122 73.782448 55.702499 74.079514 55.125 C 74.376579 54.547501 74.878006 53.314545 75.193794 52.385101 C 75.509575 51.455658 75.927254 49.579491 76.121948 48.215843 C 76.349945 46.618999 76.842087 45.102638 77.50457 43.955746 C 78.070313 42.976337 79.13752 41.375549 79.876167 40.398438 C 80.614815 39.421329 82.583565 37.123783 84.25116 35.292782 C 85.918755 33.461781 87.785225 31.032486 88.398872 29.894344 C 89.01252 28.756203 90.581528 26.375046 91.885559 24.602875 C 93.189583 22.8307 95.192413 20.263832 96.336296 18.898712 C 97.793587 17.159561 98.304939 16.30629 98.044754 16.047855 C 97.84053 15.844997 95.675766 15.59333 93.234177 15.488594 C 88.79493 15.298161 88.79493 15.298161 88.79493 14.299076 C 88.79493 13.731808 88.604561 13.30109 88.354477 13.302521 C 88.112228 13.303905 87.517616 13.906956 87.033119 14.642635 C 86.548622 15.378319 84.47084 18.094059 82.415825 20.677616 C 80.360817 23.261177 77.041107 27.895 75.038712 30.974998 C 73.036316 34.055 70.09967 38.482742 68.512817 40.81443 C 66.925972 43.146114 63.353649 47.792362 60.574322 51.139427 C 57.794998 54.486492 54.630508 58.151619 53.542122 59.284153 C 51.563248 61.343307 51.563248 61.343307 50.64669 60.74678 C 49.911015 60.267975 49.580437 60.229828 48.971603 60.553482 C 48.554413 60.775261 48.130829 60.875019 48.030308 60.775173 C 47.929787 60.675323 48.072685 60.150688 48.347866 59.609314 C 48.623039 59.06794 49.579788 57.568127 50.473965 56.276398 C 51.418575 54.911816 52.396629 52.932121 52.808315 51.551395 C 53.198025 50.244377 53.681965 48.5364 53.883743 47.75589 C 54.085514 46.975376 55.059227 45.014339 56.047554 43.398026 C 57.035881 41.781708 58.569721 39.506561 59.456097 38.34214 C 60.342468 37.177711 61.897957 35.328884 62.912746 34.233631 C 63.927528 33.138382 65.520309 31.012135 66.452263 29.508633 C 67.384216 28.005131 68.934837 25.59375 69.898094 24.150002 C 70.861351 22.706249 72.608925 20.36655 73.781601 18.950661 C 74.954277 17.534771 75.929817 16.011211 75.949486 15.564964 C 75.973221 15.026524 76.569199 14.312729 77.721306 13.442871 C 78.676132 12.721958 80.213478 11.50153 81.137619 10.730797 C 82.447304 9.638527 83.123795 9.32346 84.205009 9.302231 C 85.440216 9.277985 85.795868 9.047939 87.452354 7.201809 C 89.312576 5.128616 89.312576 5.128616 89.636185 6.326809 C 89.814156 6.985817 90.144386 7.72683 90.370026 7.973518 C 90.703178 8.337757 91.371658 8.323666 93.927834 7.898521 C 95.658997 7.610592 98.898865 7.211864 101.127556 7.012459 C 103.356239 6.813057 107.642296 6.547977 110.652122 6.423393 C 114.036499 6.283306 117.840958 6.357178 120.622978 6.616989 C 123.097115 6.848049 126.336662 7.345829 127.821983 7.723167 C 129.307297 8.100502 131.215332 8.742348 132.062057 9.149498 C 132.908783 9.556641 134.365982 10.649067 135.300278 11.57711 C 136.234589 12.505157 137.450668 14.178082 138.002686 15.294731 C 138.80014 16.907867 138.999649 17.77364 138.973755 19.508629 C 138.947174 21.291264 138.695801 22.185425 137.60495 24.377811 C 136.692535 26.211601 135.578217 27.739193 134.091614 29.194183 C 132.786911 30.471138 131.005646 31.764359 129.646469 32.421413 C 128.399048 33.024445 126.109932 33.914181 124.559547 34.398609 C 123.009163 34.88303 119.917198 35.684544 117.688515 36.179749 C 115.459824 36.674961 111.495766 37.412033 108.879494 37.817692 C 106.263214 38.223358 103.420029 38.741905 102.561302 38.970024 C 100.999977 39.384789 100.999977 39.384789 103.170403 41.829891 C 104.364136 43.174702 106.468575 45.456249 107.846924 46.900002 C 109.225273 48.34375 111.294724 50.785 112.445702 52.325001 C 113.596672 53.864998 115.048965 55.733467 115.672997 56.47715 C 116.297035 57.220833 117.124733 58.357483 117.512329 59.003036 C 117.899933 59.64859 119.406273 61.695652 120.859764 63.552059 C 122.313248 65.40847 123.502464 67.180916 123.502464 67.490837 C 123.502464 67.800758 123.106064 68.253532 122.621567 68.497002 C 122.13707 68.740479 121.314018 68.942001 120.792572 68.944839 C 120.153015 68.948318 118.965187 68.247375 117.142433 66.790878 C 115.656311 65.603355 112.673859 62.874874 110.514763 60.727577 C 108.355675 58.580284 104.527832 54.696892 102.008453 52.097813 C 99.489082 49.498734 96.302925 46.405281 94.928123 45.223473 L 92.428474 43.074726 Z M 399.753357 63.267441 C 398.469452 63.334805 397.489197 63.125313 396.139801 62.495186 C 395.121307 62.0196 393.658569 60.954254 392.889191 60.127747 C 392.119873 59.301235 390.308807 57.186165 388.864655 55.427582 C 387.420502 53.668999 384.522766 50.689529 382.425293 48.806534 C 380.32782 46.923538 377.98407 44.930096 377.216919 44.376663 C 376.449799 43.823235 375.546722 43.416454 375.210175 43.47271 C 374.873535 43.528969 374.153412 44.22493 373.609863 45.019287 C 373.066284 45.813644 370.193909 49.199898 367.226776 52.544289 C 364.259674 55.88868 361.224518 59.075974 360.482025 59.627159 C 359.228333 60.557823 359.040375 60.599262 357.846985 60.208046 C 356.825928 59.873337 356.450562 59.878544 356.020142 60.233383 C 355.577362 60.598389 355.41803 60.588177 355.148254 60.177494 C 354.966705 59.901123 354.875549 59.434021 354.945679 59.139496 C 355.015839 58.844967 355.710663 57.767376 356.489838 56.744846 C 357.268951 55.722321 358.077728 54.309544 358.287109 53.605354 C 358.49646 52.901157 358.934601 50.86364 359.260712 49.07753 C 359.694702 46.700279 360.17865 45.293453 361.066559 43.827534 C 361.733704 42.726143 362.893494 41.037498 363.643799 40.075001 C 364.394165 39.112499 366.283722 36.907497 367.842743 35.174999 C 369.713806 33.095791 371.363129 30.775742 372.694672 28.349998 C 373.804199 26.328751 375.520416 23.808746 376.508514 22.75 C 377.496582 21.691254 378.868988 20.116253 379.55838 19.25 C 380.247681 18.383747 381.030212 17.315819 381.297333 16.87682 C 381.715363 16.18972 381.709381 16.032166 381.254395 15.744682 C 380.963715 15.561001 378.902374 15.405895 376.673706 15.400002 C 374.445038 15.394104 372.39389 15.246197 372.115692 15.071316 C 371.698151 14.808887 371.689697 14.657715 372.067261 14.205814 C 372.447327 13.750954 372.432037 13.622955 371.977112 13.449543 C 371.675873 13.334736 371.142731 13.294842 370.792267 13.360889 C 370.441803 13.426941 369.679352 14.2384 369.097961 15.164135 C 368.516541 16.089863 367.293884 17.899769 366.380829 19.186138 C 365.467804 20.472511 363.485779 23.127949 361.976318 25.087105 C 360.466888 27.046265 357.329102 31.606762 355.00351 35.221554 C 352.677948 38.836338 349.555695 43.454643 348.065216 45.484447 C 346.574738 47.514252 343.165619 51.763836 340.489471 54.927971 C 337.813293 58.092102 335.356537 60.84108 335.029999 61.036808 C 334.609558 61.288811 334.175995 61.254303 333.544464 60.918579 C 332.820465 60.533707 332.550903 60.528347 332.112091 60.890099 C 331.663422 61.25996 331.571533 61.237598 331.571533 60.758564 C 331.571533 60.441132 332.450012 58.807472 333.523712 57.128208 C 334.597412 55.448944 335.707367 53.248123 335.990234 52.237499 C 336.273132 51.226875 336.744904 49.540375 337.038635 48.489716 C 337.34314 47.400692 338.468079 45.256485 339.655365 43.502213 C 340.800842 41.809746 342.539246 39.480003 343.518494 38.325001 C 344.497742 37.169998 345.906769 35.4375 346.649628 34.474998 C 347.392456 33.512501 348.811646 31.38625 349.803406 29.75 C 350.795197 28.11375 352.212341 25.958309 352.952728 24.960133 C 353.693054 23.961952 355.488007 21.697708 356.941498 19.928478 C 358.394989 18.159241 359.751953 16.255375 359.957062 15.697651 C 360.162079 15.139931 361.154297 14.068291 362.161926 13.316231 C 363.169586 12.564163 365.263977 11.462387 366.816132 10.867828 C 368.368256 10.27327 371.577728 9.316368 373.948303 8.741375 C 376.318848 8.166382 380.002808 7.542973 382.134827 7.356018 C 384.266907 7.169067 388.627563 6.943054 391.825226 6.853771 C 395.022888 6.764492 400.217163 6.830849 403.368011 7.00124 C 406.51886 7.171631 410.069092 7.558453 411.257477 7.860847 C 412.44577 8.163246 414.109467 8.714458 414.954529 9.085766 C 415.799622 9.457077 417.333679 10.552483 418.363617 11.52 C 419.405243 12.498566 420.616821 14.087582 421.094116 15.101109 C 421.768799 16.533913 421.950867 17.489342 421.946442 19.574043 C 421.941895 21.710373 421.756592 22.617809 420.991913 24.248428 C 420.470001 25.361313 419.133057 27.219452 418.020874 28.377628 C 416.908752 29.535801 415.118408 31.011417 414.042358 31.656773 C 412.96637 32.302128 410.73822 33.299839 409.090912 33.873909 C 407.443604 34.447975 403.955261 35.398991 401.338959 35.987274 C 398.722687 36.575554 394.282928 37.391125 391.47287 37.799648 C 388.662811 38.208164 385.745453 38.703701 384.989929 38.900833 C 383.616241 39.259254 383.616241 39.259254 387.456451 43.083031 C 389.568604 45.186108 392.144257 47.889648 393.180176 49.090904 C 394.216095 50.29216 395.30014 51.826248 395.589203 52.5 C 395.878204 53.173752 396.616241 54.73233 397.229309 55.963516 C 397.842346 57.194702 399.046509 58.982079 399.905273 59.935471 C 400.764008 60.888863 401.47757 62.007778 401.490906 62.421955 C 401.512238 63.08374 401.301636 63.186203 399.753357 63.267441 Z M 0.485397 61.599998 C 0.218428 61.599998 0.005619 61.324375 0.012486 60.987499 C 0.019353 60.650623 0.217556 60.045338 0.452937 59.642414 C 0.688318 59.239494 1.398478 58.269012 2.03107 57.485786 C 2.663661 56.70256 3.401274 55.535973 3.670208 54.893368 C 3.939143 54.250767 4.338877 52.249054 4.558507 50.445118 C 4.778137 48.641182 5.242373 46.580254 5.590145 45.865273 C 5.937915 45.150291 7.237638 43.23999 8.478418 41.620155 C 9.719198 40.000317 11.958089 37.365582 13.453731 35.765175 C 14.949374 34.164776 16.762169 31.802277 17.482166 30.515175 C 18.202166 29.228081 19.588186 26.993752 20.56221 25.549999 C 21.536238 24.106251 23.135372 22.082432 24.115845 21.052628 C 25.096315 20.02282 26.188431 18.728374 26.542767 18.176086 C 26.897102 17.623795 27.085947 17.009491 26.962423 16.810959 C 26.826868 16.593102 24.930092 16.450001 22.177937 16.450001 C 17.61804 16.450001 17.61804 16.450001 17.61804 15.351032 C 17.61804 14.252071 17.61804 14.252071 15.68119 14.488129 C 14.615925 14.617958 11.916999 14.923336 9.683576 15.166752 C 5.854402 15.584068 5.658401 15.575279 6.246922 15.012585 C 6.590184 14.684383 8.377379 13.666744 10.218464 12.751156 C 12.059548 11.835571 14.675829 10.733948 16.032417 10.303116 C 17.389006 9.872272 19.846722 9.277431 21.494009 8.981247 C 23.141298 8.685059 25.91614 8.271461 27.660324 8.062149 C 29.404509 7.852833 33.7854 7.582935 37.395641 7.462372 C 41.311474 7.3316 46.011761 7.404976 49.04604 7.644238 C 51.843521 7.864826 55.362923 8.357922 56.866932 8.740009 C 58.370945 9.122089 60.386307 9.858994 61.345528 10.377563 C 62.304737 10.896137 63.796684 12.071342 64.660965 12.989132 C 65.525238 13.906918 66.573105 15.354465 66.989548 16.205898 C 67.634239 17.523975 67.723381 18.195679 67.589607 20.727364 C 67.465515 23.075851 67.22155 24.129032 66.42881 25.738476 C 65.858124 26.897106 64.499626 28.692661 63.279812 29.900593 C 62.099884 31.069016 60.183144 32.517429 59.020382 33.119286 C 57.857624 33.721142 55.399933 34.702152 53.558846 35.299301 C 51.717758 35.896454 48.546509 36.777473 46.511627 37.257114 C 44.476746 37.736763 38.609936 38.685883 33.474277 39.366272 C 28.338619 40.046661 23.812292 40.742081 23.415773 40.911644 C 23.019255 41.081207 21.883125 42.379829 20.891043 43.79747 C 19.898958 45.215111 18.162071 47.425209 17.031296 48.708797 C 15.900516 49.992386 13.807645 52.354885 12.380469 53.958797 C 10.953295 55.562706 8.7573 57.938126 7.500484 59.237499 C 5.990522 60.798592 4.943058 61.599998 4.41263 61.599998 C 3.971127 61.599998 3.412505 61.363747 3.171247 61.075001 C 2.92999 60.786251 2.533584 60.549999 2.290345 60.549999 C 2.047107 60.549999 1.650701 60.786251 1.409443 61.075001 C 1.168186 61.363747 0.752365 61.599998 0.485397 61.599998 Z M 194.631027 60.752449 C 194.216858 60.867146 193.78363 60.809322 193.668289 60.623962 C 193.552948 60.438599 193.931137 59.676754 194.508698 58.930973 C 195.086258 58.185188 196.438431 56.315002 197.513504 54.775002 C 198.588593 53.235001 200.334122 50.725605 201.392471 49.19857 C 202.45079 47.671532 204.426605 44.980835 205.783142 43.219246 C 207.139679 41.457657 208.761612 39.084553 209.387421 37.945679 C 210.398163 36.106316 210.526062 35.562214 210.53241 33.075001 C 210.536316 31.535004 210.666412 29.675591 210.821487 28.942982 C 210.976563 28.210365 211.411713 27.304741 211.788513 26.930481 C 212.281891 26.440395 212.960007 26.25 214.212082 26.25 C 215.854523 26.25 216.009766 26.167805 217.021332 24.762501 C 217.610245 23.944378 218.673172 22.449097 219.383423 21.439651 C 220.093658 20.430214 220.746475 19.231655 220.834137 18.776196 C 220.95755 18.134998 220.807404 17.89859 220.169052 17.728817 C 219.715622 17.608227 218.076126 17.508121 216.525726 17.506371 C 214.975327 17.50462 211.926971 17.605053 209.751572 17.729568 C 205.796295 17.955952 205.796295 17.955952 204.061996 20.26548 C 203.108124 21.535713 200.606812 24.391037 198.50351 26.610634 C 196.400223 28.830231 192.837799 32.610229 190.587006 35.010632 C 188.336227 37.411034 185.260391 40.785381 183.751801 42.509186 C 182.24321 44.23299 180.596405 46.344284 180.092209 47.200958 C 179.588013 48.057632 178.399445 49.718498 177.450958 50.891769 C 176.502472 52.065048 174.758301 54.01873 173.574997 55.233292 C 171.77774 57.078011 171.273224 57.412621 170.510544 57.265671 C 169.834473 57.135399 169.254379 57.379768 168.27507 58.207378 C 167.547699 58.822071 166.725159 59.482498 166.447235 59.674999 C 166.092133 59.920937 165.854004 59.885113 165.646317 59.554497 C 165.402695 59.166687 165.154221 59.184933 164.232635 59.658306 C 163.114548 60.232624 163.114548 60.232624 164.027725 58.442635 C 164.777496 56.972931 164.898804 56.373795 164.705612 55.094242 C 164.481766 53.611515 164.595398 53.32811 167.045349 49.258308 C 168.461609 46.905666 170.46225 43.648861 171.491241 42.020962 C 172.536774 40.366859 175.4216 36.839386 178.030609 34.024811 C 180.598282 31.254826 183.703522 27.781693 184.931183 26.30674 C 186.158844 24.831783 187.9823 22.689037 188.983337 21.545082 C 189.98436 20.401123 190.85704 19.157898 190.922607 18.782349 C 191.028488 18.175919 190.890533 18.122311 189.689346 18.303139 C 188.945465 18.415119 187.385483 18.665638 186.222687 18.859856 C 185.059906 19.05407 182.342041 19.301807 180.182968 19.410378 C 176.630661 19.589008 176.262115 19.551117 176.306992 19.011864 C 176.334259 18.684109 175.96019 18.207043 175.475693 17.951729 C 174.889664 17.642902 174.017258 17.561535 172.869476 17.708645 C 171.227554 17.919098 171.153809 17.893169 171.343613 17.172142 C 171.453323 16.755444 171.73381 16.186241 171.966919 15.907253 C 172.200012 15.628262 172.837646 15.400002 173.383865 15.400002 C 173.930115 15.400002 174.470978 15.248978 174.585846 15.064392 C 174.700684 14.87981 174.213776 14.432785 173.50383 14.071003 C 172.213013 13.413208 172.213013 13.413208 173.403915 12.682896 C 174.058884 12.281219 175.805832 11.549046 177.286011 11.055832 C 178.766159 10.562618 182.492386 9.645161 185.566483 9.01704 C 191.155746 7.875 191.155746 7.875 204.016907 7.908295 C 211.090561 7.926601 219.549225 8.13673 222.81395 8.37524 C 228.647324 8.801414 228.763321 8.796307 229.531525 8.079449 C 229.961456 7.678253 230.490509 7.349998 230.707214 7.349998 C 230.923904 7.349998 231.204636 7.673672 231.331024 8.069267 C 231.457443 8.464863 231.745605 8.729836 231.971405 8.658089 C 232.19722 8.586342 233.174774 7.521614 234.143768 6.292027 C 235.112762 5.062431 236.592682 3.340591 237.432465 2.465698 C 238.959366 0.875 238.959366 0.875 238.735641 3.5 C 238.612579 4.943748 238.425125 6.784317 238.319031 7.590145 C 238.129333 9.031342 238.145477 9.05822 239.306229 9.234737 C 239.955246 9.333435 242.785416 9.494785 245.59549 9.5933 C 249.477737 9.729393 251.127823 9.935131 252.466522 10.450016 C 253.435516 10.822708 254.269638 11.340794 254.320114 11.601318 C 254.370621 11.861843 254.100372 12.578873 253.719559 13.19471 C 253.232803 13.981911 252.59668 14.429573 251.577454 14.702183 C 250.780106 14.915455 247.879105 15.384708 245.130798 15.744976 C 242.382492 16.105244 238.661682 16.51075 236.862274 16.646099 C 233.590668 16.8922 233.590668 16.8922 230.54892 21.098495 C 228.875961 23.411964 227.435959 25.674969 227.348877 26.127403 C 227.212341 26.836941 227.329391 26.949299 228.200638 26.944904 C 228.75618 26.942108 229.862503 26.714191 230.659149 26.438431 C 231.45578 26.16267 232.926483 25.829147 233.927368 25.697262 C 235.356308 25.50898 235.882706 25.579327 236.37825 26.024803 C 236.725388 26.336834 237.623886 26.803448 238.374954 27.061729 C 239.126007 27.320011 239.886139 27.760662 240.064133 28.040951 C 240.292694 28.400875 240.056473 29.038151 239.259979 30.210423 C 238.529129 31.286087 237.554352 32.160629 236.490341 32.695278 C 235.587311 33.149033 233.738541 33.869198 232.381958 34.295647 C 230.681183 34.830292 228.631882 35.129158 225.781036 35.258308 C 221.646652 35.445606 221.646652 35.445606 220.622604 37.060303 C 220.059402 37.948387 218.621567 40.46756 217.42746 42.658463 C 216.233337 44.849365 215.16745 47.083363 215.058807 47.622902 C 214.861298 48.603889 214.861298 48.603889 225.806793 48.714447 C 233.409241 48.791237 236.875076 48.947147 237.154358 49.224922 C 237.451035 49.519981 237.453903 49.815239 237.165283 50.350906 C 236.818237 50.995018 236.92392 51.153709 238.101624 51.756939 C 239.391556 52.417648 239.404205 52.442375 238.548279 52.629848 C 238.063782 52.735966 236.081741 52.984123 234.143768 53.181316 C 232.20578 53.37851 229.273788 53.777695 227.62825 54.068398 C 225.982712 54.3591 223.396149 54.916271 221.880341 55.306553 C 220.364548 55.696835 218.381104 56.400982 217.472672 56.871323 C 216.174408 57.543503 214.539261 57.880482 209.830872 58.446175 C 206.536301 58.842003 201.937973 59.475925 199.612396 59.854889 C 197.286835 60.233856 195.045197 60.63776 194.631027 60.752449 Z M 467.758972 60.5196 C 464.147034 60.505344 462.259766 60.335983 460.711761 59.887184 C 459.54895 59.550064 457.487671 58.713455 456.131073 58.028053 C 454.774506 57.342651 452.461151 55.700321 450.990265 54.378433 C 448.639496 52.265728 448.220978 51.699806 447.530487 49.700001 C 447.09848 48.448753 446.652954 46.353889 446.540466 45.044754 C 446.408508 43.509155 446.474365 42.527023 446.725983 42.277084 C 447.011108 41.993866 447.262177 42.010162 447.659485 42.337692 C 448.09375 42.695686 448.309174 42.698162 448.731506 42.349998 C 449.022186 42.110359 449.262451 41.579201 449.265411 41.16964 C 449.268372 40.76009 449.404602 40.21542 449.568054 39.95927 C 449.777222 39.631535 449.932251 39.825985 450.091217 40.61552 C 450.215485 41.232605 450.317139 42.637653 450.317139 43.737846 C 450.317139 45.278694 450.570526 46.241844 451.420135 47.93074 C 452.243591 49.567543 452.916656 50.371162 454.075592 51.101196 C 454.929382 51.639046 456.654144 52.355019 457.908417 52.692253 C 459.692719 53.172012 460.935638 53.259064 463.621552 53.092403 C 465.509552 52.975258 468.402039 52.623932 470.049316 52.31168 C 471.696625 51.999435 473.837219 51.350441 474.806213 50.86948 C 475.775208 50.388519 477.404358 49.35524 478.426544 48.573303 C 479.44873 47.791367 480.901978 46.419743 481.655945 45.525238 C 482.409912 44.630741 483.42807 43.149239 483.918549 42.233009 C 484.408966 41.316788 484.90979 39.905159 485.031433 39.096073 C 485.153015 38.28698 485.088013 37.196472 484.886932 36.672718 C 484.6185 35.973438 483.777893 35.349113 481.722992 34.322857 C 480.183929 33.554195 477.0466 32.282879 474.751221 31.497715 C 472.455902 30.712547 469.445221 29.515137 468.060791 28.836803 C 466.676453 28.15847 464.885803 27.122833 464.081604 26.535385 C 463.252411 25.929649 462.244659 24.732685 461.753723 23.770279 C 461.191956 22.669186 460.888428 21.48539 460.889282 20.399136 C 460.890106 19.325233 461.15509 18.285797 461.628418 17.5 C 462.034241 16.826248 462.896301 15.723751 463.544159 15.049999 C 464.192078 14.376247 465.169067 13.209717 465.715271 12.457706 C 466.590118 11.253338 467.043945 10.997765 469.524048 10.312851 C 471.072662 9.885193 472.854401 9.324295 473.483521 9.066406 C 474.482758 8.656803 474.756897 8.673538 475.652039 9.198765 C 476.215637 9.529442 477.28653 9.798462 478.03183 9.796581 C 478.7771 9.794701 480.258972 9.385849 481.32489 8.888027 C 482.390778 8.390202 484.134949 7.904587 485.200836 7.808887 C 486.641907 7.679504 487.951996 7.868107 490.310089 8.544415 C 492.05426 9.044655 493.798462 9.616905 494.186035 9.816082 C 494.573639 10.015259 495.24826 10.72197 495.68512 11.386562 C 496.12204 12.051147 497.346313 13.166573 498.405731 13.865269 C 500.231506 15.069401 500.304932 15.173954 499.813629 15.870697 C 499.528534 16.274979 499.295288 16.94701 499.295288 17.364105 C 499.295288 17.781193 499.004028 18.479679 498.648102 18.916298 C 498.117462 19.567234 497.772247 19.673279 496.730377 19.505337 C 496.031555 19.392696 494.702332 18.967735 493.776611 18.560986 C 492.850891 18.154236 491.054504 17.644466 489.784576 17.428165 C 488.038086 17.130684 486.404724 17.140282 483.078949 17.467567 C 480.660706 17.705536 477.026703 18.21542 475.003326 18.600624 C 472.97995 18.985832 470.847351 19.546097 470.26413 19.84565 C 469.203796 20.390297 469.203796 20.390297 469.980804 21.015263 C 470.408142 21.358997 471.827271 22.041348 473.134369 22.531601 C 474.441467 23.021862 477.175812 24.002884 479.210724 24.711658 C 481.245605 25.420433 483.901031 26.461445 485.111725 27.025013 C 486.322418 27.588585 488.148438 28.80814 489.169556 29.735142 C 490.190674 30.66214 491.394989 32.154182 491.845795 33.050793 C 492.29657 33.947399 492.782959 35.541348 492.926636 36.592896 C 493.070282 37.644444 493.056702 39.457176 492.896484 40.621181 C 492.736206 41.785191 492.117432 43.901096 491.521393 45.323196 C 490.925415 46.745293 489.678345 48.982952 488.750183 50.295769 C 487.821991 51.608589 486.087128 53.579758 484.894897 54.676147 C 483.594025 55.872459 481.548248 57.249886 479.778839 58.120785 C 478.157196 58.918941 475.899292 59.789577 474.761261 60.055523 C 473.489075 60.352806 470.79187 60.531567 467.758972 60.5196 Z M 403.688019 60.192741 C 402.751343 60.196735 402.037811 60.071304 402.102417 59.914009 C 402.167023 59.756714 402.886414 58.851089 403.701019 57.901508 C 404.515686 56.951927 405.929718 55.072498 406.843353 53.724998 C 407.75705 52.377502 409.296082 50.09375 410.263489 48.650002 C 411.230927 47.206249 412.809937 45.032677 413.77243 43.819839 C 414.734863 42.606995 416.295166 40.337486 417.239685 38.77647 C 418.668182 36.415649 418.957001 35.651646 418.957001 34.234158 C 418.957001 33.02779 419.276947 31.894012 420.052338 30.35252 C 420.654816 29.154884 421.47525 27.820625 421.875549 27.387501 C 422.275909 26.954372 422.891663 26.599998 423.243896 26.599998 C 423.645233 26.599998 424.823914 25.336311 426.401398 23.214737 C 427.785767 21.35284 429.221588 19.319214 429.59201 18.695568 C 430.265564 17.561668 430.265564 17.561668 429.144043 16.292881 C 428.094269 15.105274 428.035461 14.899448 428.224945 13.075932 C 428.339294 11.974907 428.690369 10.839085 429.032196 10.463882 C 429.543182 9.903008 430.143768 9.799999 432.902832 9.799999 C 435.95459 9.799999 436.243195 9.736927 437.307098 8.837502 C 437.933258 8.308125 438.605469 7.813953 438.800934 7.739338 C 438.996368 7.664726 439.360748 7.881355 439.610565 8.220737 C 439.860382 8.56012 440.278168 8.756477 440.53891 8.657085 C 440.799683 8.55769 441.706055 7.553562 442.55307 6.425686 C 443.400055 5.297806 444.87854 3.38356 445.838593 2.171799 C 446.798584 0.96003 447.644745 0.028839 447.718842 0.102486 C 447.792999 0.176125 447.633331 0.695068 447.364075 1.255684 C 447.094788 1.816307 446.788452 3.377495 446.683289 4.724998 C 446.578156 6.072502 446.392242 7.430317 446.270172 7.742371 C 446.148163 8.054428 446.288422 8.548286 446.58194 8.839844 C 447.006348 9.261402 448.371582 9.397156 453.24939 9.502819 C 457.050812 9.585163 459.568756 9.784645 459.871307 10.027428 C 460.13974 10.242889 460.87381 10.528412 461.502472 10.661938 C 462.131195 10.795456 462.776337 11.136852 462.936218 11.420593 C 463.138153 11.779057 462.857635 12.325367 462.016876 13.21085 C 461.055542 14.223366 460.362732 14.577488 458.645172 14.934258 C 457.456207 15.181232 453.708588 15.642509 450.317139 15.95932 C 446.925659 16.276131 443.579254 16.673546 442.880646 16.842468 C 441.867706 17.087399 441.301819 17.592606 440.086243 19.337296 C 439.247864 20.540535 437.877045 22.432384 437.039948 23.541409 C 436.15152 24.718483 435.517975 25.938622 435.517975 26.47266 C 435.517975 27.285271 435.626221 27.365406 436.486969 27.189758 C 437.019897 27.081005 438.153839 26.744888 439.006836 26.442844 C 439.859802 26.140789 441.411285 25.79401 442.454559 25.672215 C 444.049072 25.486069 444.47583 25.561829 445.132019 26.147552 C 445.56134 26.530781 446.685822 27.206791 447.630859 27.649796 C 449.349091 28.455269 449.349091 28.455269 448.511749 29.082588 C 448.051208 29.427616 447.589111 30.073307 447.484894 30.517456 C 447.36499 31.028469 446.653381 31.671803 445.546906 32.269455 C 444.585297 32.788906 442.529968 33.636314 440.979553 34.152588 C 438.761688 34.891132 437.255951 35.128334 433.917297 35.265095 C 429.67395 35.438915 429.67395 35.438915 426.597992 40.906956 C 424.906189 43.914383 423.248047 46.82943 422.913239 47.38485 C 422.382202 48.265701 422.371979 48.422176 422.832977 48.609848 C 423.123657 48.72818 427.965698 48.825001 433.593018 48.825001 C 441.005585 48.825001 444.091553 48.945122 444.793671 49.260979 C 445.595795 49.621803 445.701813 49.810291 445.40863 50.354424 C 445.140198 50.852665 445.200958 51.136826 445.659698 51.527748 C 445.992584 51.811466 446.582123 52.178757 446.969696 52.343948 C 447.44693 52.547333 446.366272 52.719551 443.622284 52.877403 C 441.35495 53.007835 437.785309 53.516964 435.517975 54.033302 C 433.289307 54.540836 429.642334 55.573296 427.413666 56.327652 C 424.355804 57.362663 422.151062 57.841568 418.428467 58.279381 C 415.715302 58.598473 411.671936 59.157887 409.443268 59.522518 C 407.2146 59.887154 404.624725 60.188751 403.688019 60.192741 Z M 151.454086 45.075771 C 151.736832 45.020348 152.086487 44.738747 152.23111 44.450001 C 152.375748 44.161251 152.663467 43.011711 152.870499 41.89547 C 153.077545 40.779228 153.767639 38.389103 154.404037 36.584072 C 155.040436 34.779045 155.433365 33.175289 155.277206 33.020172 C 155.121033 32.865055 154.523392 33.006012 153.949097 33.333405 C 153.374802 33.660797 151.680481 34.999878 150.18396 36.309139 C 148.687439 37.618408 147.095978 38.94455 146.647385 39.25613 C 146.198807 39.567711 145.747391 40.143112 145.644287 40.534805 C 145.50061 41.080536 145.732391 41.387871 146.636078 41.849823 C 147.284683 42.181393 148.518402 43.06554 149.377686 43.814606 C 150.236969 44.563667 151.171341 45.131195 151.454086 45.075771 Z M 28.055174 35.29483 C 28.618179 35.212753 30.424562 34.624916 32.069363 33.988525 C 33.714161 33.352139 36.486965 32.143673 38.231148 31.303051 C 39.975334 30.462433 43.463711 29.118713 45.983086 28.317013 C 48.502464 27.515312 51.894249 26.210388 53.520386 25.417191 C 55.146515 24.623985 57.168186 23.370991 58.012985 22.632751 C 59.17588 21.616543 59.548977 21.038822 59.548977 20.254345 C 59.548977 19.63829 59.218739 18.890152 58.734463 18.409122 C 58.286472 17.964138 57.136894 17.346642 56.179844 17.036903 C 55.22279 16.727169 53.096123 16.310905 51.453922 16.111874 C 49.811722 15.912846 46.710423 15.75 44.562141 15.75 C 41.95575 15.75 40.479351 15.895561 40.124695 16.1875 C 39.832375 16.428123 39.17194 17.458515 38.657066 18.477257 C 38.142197 19.495998 37.019276 21.228497 36.161686 22.327255 C 35.304096 23.426014 33.701954 25.348751 32.601376 26.599998 C 31.500792 27.85125 29.873228 29.958698 28.984568 31.283226 C 28.095907 32.607746 27.292927 34.085789 27.200172 34.567757 C 27.046938 35.363987 27.125071 35.430428 28.055174 35.29483 Z M 382.801697 34.465981 C 383.210358 34.356075 385.051086 33.698582 386.892181 33.004883 C 388.733246 32.31118 391.270264 31.230412 392.529938 30.60318 C 393.789612 29.975937 397.19873 28.646633 400.105713 27.649162 C 403.012695 26.651691 406.773041 25.128208 408.462006 24.263641 C 410.151031 23.399071 412.188293 22.059933 412.989319 21.287777 C 414.155884 20.163292 414.410553 19.701077 414.269012 18.965549 C 414.171783 18.46048 413.690216 17.703728 413.198853 17.283882 C 412.707458 16.864033 411.542511 16.273693 410.610077 15.972008 C 409.677643 15.670322 407.884064 15.261894 406.62439 15.064388 C 405.364716 14.866882 402.146454 14.704098 399.472687 14.702644 C 394.611328 14.700001 394.611328 14.700001 394.011108 15.788975 C 393.680969 16.387909 392.795349 17.844784 392.04306 19.026474 C 391.290802 20.208164 389.689758 22.356251 388.485291 23.799999 C 387.280762 25.243752 385.554657 27.398289 384.649414 28.58786 C 383.744171 29.777435 382.618073 31.424755 382.147003 32.248573 C 381.50882 33.364529 381.388397 33.863632 381.674561 34.20612 C 381.88913 34.462952 382.386536 34.577625 382.801697 34.465981 Z M 99.222496 34.221439 C 99.979584 34.119457 101.788231 33.57037 103.241722 33.001247 C 104.695206 32.432121 107.628616 31.174541 109.760391 30.206608 C 111.892174 29.238678 115.539108 27.858807 117.864693 27.140224 C 120.190277 26.421646 123.329681 25.197048 124.841164 24.418892 C 126.352646 23.640739 128.295044 22.322777 129.157578 21.490089 C 130.171692 20.511108 130.725861 19.673294 130.725861 19.119171 C 130.725861 18.592548 130.309357 17.914108 129.645355 17.359119 C 129.051056 16.862415 127.697975 16.205711 126.638496 15.899773 C 125.579018 15.593838 123.726456 15.201897 122.52169 15.028797 C 121.316933 14.855698 118.458 14.710907 116.168503 14.707039 C 112.076698 14.700119 111.990448 14.716396 111.104713 15.662498 C 110.609116 16.191875 109.674706 17.53841 109.028244 18.654804 C 108.381767 19.771191 106.440056 22.369942 104.713318 24.429802 C 102.986565 26.489658 100.822731 29.243996 99.9048 30.550541 C 98.986862 31.857094 98.148109 33.259262 98.040901 33.666473 C 97.861526 34.34782 97.955757 34.392078 99.222496 34.221439 Z"/>
</svg>
